# xmcd
#
# Track frame offsets: 
#        150
#        14635
#        31123
#        49273
#        65998
#        85105
#        94465
#        118785
#        138730
#        153332
#        167687
#        182120
#        196670
#        206795
#        218170
#        231629
#        248340
#        267283
#        279684
#        297177
#        314019
#        331078
#
# Disc length: 4722 seconds
#
# Revision: 0
# Processed by: cddbd v1.5.2PL0 Copyright (c) Steve Scherf et al.
# Submitted via: ExactAudioCopy v0.99pb3
#
DISCID=54127016
DTITLE=PJ Harvey - B-Sides and Rare
DYEAR=1900
DGENRE=
TTITLE0=Wang Dang Doodle
TTITLE1=Somebody's Down Somebody's Name
TTITLE2=Maniac
TTITLE3=Darling Be There
TTITLE4=Long Time Coming
TTITLE5=Harder
TTITLE6=Zaz Turned Blue
TTITLE7=Ballad Of The Solider's Wife
TTITLE8=Losin' Ground
TTITLE9=The Bay
TTITLE10=Sweeter Than Anything
TTITLE11=Rebecca
TTITLE12=Nina In Ecstasy
TTITLE13=Featherhead
TTITLE14=Nickel Under The Foot
TTITLE15=This Wicked Tongue
TTITLE16=30
TTITLE17=As Close As This
TTITLE18=66 Promises
TTITLE19=A Place Called Home
TTITLE20=Angelene
TTITLE21=Will's Song (Live)
EXTD=
EXTT0=
EXTT1=
EXTT2=
EXTT3=
EXTT4=
EXTT5=
EXTT6=
EXTT7=
EXTT8=
EXTT9=
EXTT10=
EXTT11=
EXTT12=
EXTT13=
EXTT14=
EXTT15=
EXTT16=
EXTT17=
EXTT18=
EXTT19=
EXTT20=
EXTT21=
PLAYORDER=
